<?xml version="1.0" encoding="iso-8859-1"?>
<!-- Generator: Adobe Illustrator 19.0.0, SVG Export Plug-In . SVG Version: 6.00 Build 0)  -->
<svg version="1.1" id="Capa_1" xmlns="http://www.w3.org/2000/svg" xmlns:xlink="http://www.w3.org/1999/xlink" x="0px" y="0px"
	 viewBox="0 0 496 496" style="enable-background:new 0 0 496 496;" xml:space="preserve">
<g>
	<g>
		<path d="M480,48c4.424,0,8-3.584,8-8V8c0-4.416-3.576-8-8-8H96C47.48,0,8,39.48,8,88c0,35.512,21.192,66.112,51.552,80
			C29.192,181.888,8,212.488,8,248c0,35.512,21.192,66.112,51.552,80C29.192,341.888,8,372.488,8,408c0,48.52,39.48,88,88,88h384
			c4.424,0,8-3.584,8-8v-32c0-4.416-3.576-8-8-8h-4.464c-20.432-22.696-20.432-57.304,0-80H480c4.424,0,8-3.584,8-8v-32v-32
			c0-4.416-3.576-8-8-8h-4.464c-20.432-22.696-20.432-57.304,0-80H480c4.424,0,8-3.584,8-8v-32v-32c0-4.416-3.576-8-8-8h-4.464
			c-20.432-22.696-20.432-57.304,0-80H480z M472,352H96c-30.872,0-56,25.12-56,56s25.128,56,56,56h376v16H96
			c-39.704,0-72-32.304-72-72s32.296-72,72-72h376V352z M455.592,448H96c-22.056,0-40-17.944-40-40c0-22.056,17.944-40,40-40
			h359.592C440.432,392.416,440.432,423.584,455.592,448z M472,192H96c-30.872,0-56,25.12-56,56s25.128,56,56,56h376v16H96
			c-39.704,0-72-32.304-72-72s32.296-72,72-72h376V192z M455.592,288H96c-22.056,0-40-17.944-40-40c0-22.056,17.944-40,40-40
			h359.592C440.432,232.416,440.432,263.584,455.592,288z M472,32H96c-30.872,0-56,25.12-56,56s25.128,56,56,56h376v16H96
			c-39.704,0-72-32.304-72-72s32.296-72,72-72h376V32z M455.592,128H96c-22.056,0-40-17.944-40-40c0-22.056,17.944-40,40-40h359.592
			C440.432,72.416,440.432,103.584,455.592,128z"/>
	</g>
</g>
<g>
	<g>
		<rect x="128" y="96" width="88" height="16"/>
	</g>
</g>
<g>
	<g>
		<rect x="232" y="96" width="48" height="16"/>
	</g>
</g>
<g>
	<g>
		<rect x="296" y="96" width="16" height="16"/>
	</g>
</g>
<g>
	<g>
		<rect x="328" y="96" width="16" height="16"/>
	</g>
</g>
<g>
	<g>
		<rect x="160" y="64" width="136" height="16"/>
	</g>
</g>
<g>
	<g>
		<rect x="312" y="64" width="48" height="16"/>
	</g>
</g>
<g>
	<g>
		<rect x="376" y="64" width="16" height="16"/>
	</g>
</g>
<g>
	<g>
		<rect x="208" y="256" width="72" height="16"/>
	</g>
</g>
<g>
	<g>
		<rect x="296" y="256" width="16" height="16"/>
	</g>
</g>
<g>
	<g>
		<rect x="328" y="256" width="16" height="16"/>
	</g>
</g>
<g>
	<g>
		<rect x="160" y="224" width="136" height="16"/>
	</g>
</g>
<g>
	<g>
		<rect x="312" y="224" width="48" height="16"/>
	</g>
</g>
<g>
	<g>
		<rect x="376" y="224" width="16" height="16"/>
	</g>
</g>
<g>
	<g>
		<rect x="200" y="416" width="16" height="16"/>
	</g>
</g>
<g>
	<g>
		<rect x="232" y="416" width="48" height="16"/>
	</g>
</g>
<g>
	<g>
		<rect x="296" y="416" width="16" height="16"/>
	</g>
</g>
<g>
	<g>
		<rect x="328" y="416" width="16" height="16"/>
	</g>
</g>
<g>
	<g>
		<rect x="360" y="416" width="16" height="16"/>
	</g>
</g>
<g>
	<g>
		<rect x="200" y="384" width="96" height="16"/>
	</g>
</g>
<g>
	<g>
		<rect x="312" y="384" width="48" height="16"/>
	</g>
</g>
<g>
	<g>
		<rect x="376" y="384" width="16" height="16"/>
	</g>
</g>
<g>
	<g>
		<path d="M176,384h-48c-4.424,0-8,3.584-8,8v40c0,2.952,1.624,5.664,4.224,7.056c2.592,1.392,5.768,1.232,8.208-0.4L152,425.616
			l19.56,13.04c1.336,0.896,2.888,1.344,4.44,1.344c1.296,0,2.592-0.312,3.776-0.944c2.6-1.392,4.224-4.104,4.224-7.056v-40
			C184,387.584,180.424,384,176,384z M168,417.048l-11.56-7.704c-1.344-0.896-2.896-1.344-4.44-1.344s-3.096,0.448-4.44,1.344
			L136,417.048V400h32V417.048z"/>
	</g>
</g>
<g>
	<g>
		<rect x="136" y="256" width="40" height="16"/>
	</g>
</g>
<g>
</g>
<g>
</g>
<g>
</g>
<g>
</g>
<g>
</g>
<g>
</g>
<g>
</g>
<g>
</g>
<g>
</g>
<g>
</g>
<g>
</g>
<g>
</g>
<g>
</g>
<g>
</g>
<g>
</g>
</svg>
