<svg height="512" viewBox="0 0 64 64" width="512" xmlns="http://www.w3.org/2000/svg"><circle cx="37" cy="18" r="1"/><circle cx="27" cy="18" r="1"/><path d="m28.46 26.54a5 5 0 0 0 7.08 0 1 1 0 1 0 -1.42-1.42 3 3 0 0 1 -4.24 0 1 1 0 0 0 -1.42 1.42z"/><path d="m20 42a1 1 0 0 0 -1 1v18a1 1 0 0 0 2 0v-18a1 1 0 0 0 -1-1z"/><path d="m22 31h-2a9 9 0 0 0 -9 9v21a1 1 0 0 0 2 0v-21a7 7 0 0 1 7-7h2a1 1 0 0 0 0-2z"/><path d="m44 31h-5v-.52a11 11 0 0 0 4-8.48v-10a1 1 0 0 0 -1-1h-10a1 1 0 0 0 0 2h9v9a9 9 0 0 1 -18 .41c0-.14 0-.27 0-.4v-9.01h5a1 1 0 0 0 0-2h-6a1 1 0 0 0 -1 1v8.72a7 7 0 0 1 -3-5.72v-11h19a9 9 0 0 1 9 9 8.86 8.86 0 0 1 -.9 3.88 1 1 0 0 0 1.8.87 10.87 10.87 0 0 0 1.1-4.75 11 11 0 0 0 -11-11h-20a1 1 0 0 0 -1 1v12a8.94 8.94 0 0 0 5.05 8.06 11 11 0 0 0 3.95 7.42v1.52a7 7 0 0 0 13.92 1h5.08a7 7 0 0 1 7 7v11a5 5 0 0 1 -5 5h-7v-6h5a1 1 0 0 0 1-1v-7a1 1 0 0 0 -2 0v6h-6v-4a1 1 0 0 0 -1-1h-2a3 3 0 0 0 -3 3v2h-1a3 3 0 0 0 -3 3v4a3 3 0 0 0 3 3h13v3a1 1 0 0 0 2 0v-3h1a7 7 0 0 0 7-7v-11a9 9 0 0 0 -9-9zm-12 6a5 5 0 0 1 -5-5v-.21a10.94 10.94 0 0 0 10 0v.21a5 5 0 0 1 -5 5zm-2 19a1 1 0 0 1 -1-1v-4a1 1 0 0 1 1-1h3a1 1 0 0 0 0-2v-2a1 1 0 0 1 1-1h1v4a1 1 0 0 0 1 1h1v6z"/></svg>