<?xml version="1.0"?>
<svg xmlns="http://www.w3.org/2000/svg" viewBox="0 0 64 64" width="512" height="512"><g id="Outline"><g><path d="M61,57H58V44a5,5,0,0,0-5-5H50.64A9,9,0,0,0,54,32v-.1A8,8,0,0,0,50,17H47.62a1,1,0,0,0,0,2H50a6,6,0,0,1,4,10.46V24a1,1,0,0,0-1-1H44a1,1,0,0,0,0,2h8v7a7,7,0,0,1-14,0V25h2a1,1,0,0,0,0-2H37a1,1,0,0,0-1,1v5.46A6,6,0,0,1,34,25V23a1,1,0,0,0-2,0v2a8,8,0,0,0,1.11,4L33,29H3a1,1,0,0,0-1,1V40a1,1,0,0,0,2,0V31H32V49H23V46a5,5,0,0,0-10,0v3H4V44a1,1,0,0,0-2,0v6a1,1,0,0,0,1,1H13v2H10a1,1,0,0,0,0,2H26a1,1,0,0,1,1,1v1H3a1,1,0,0,0-1,1v4a1,1,0,0,0,2,0V59H60v3a1,1,0,0,0,2,0V58A1,1,0,0,0,61,57Zm-9-4h4v4H52ZM48,40.49a3,3,0,0,1-5.9,0,8.79,8.79,0,0,0,5.9,0ZM15,53V46a3,3,0,0,1,6,0v7Zm11,0H23V51H33a1,1,0,0,0,1-1V30.26a7.94,7.94,0,0,0,2,1.64V32a9,9,0,0,0,3.36,7H37a1,1,0,0,0,0,2h3.1a5,5,0,0,0,9.8,0H53a3,3,0,0,1,3,3v7H52V47a1,1,0,0,0-2,0V57H40V47a1,1,0,0,0-2,0v4H37a1,1,0,0,0,0,2h1v4H34V54a1,1,0,0,0-2,0v3H29V56A3,3,0,0,0,26,53Z"/><circle cx="42" cy="29" r="1"/><circle cx="48" cy="29" r="1"/><path d="M15.84,9.41A1,1,0,0,0,15,8.73l-2.24-.32-1-2a1,1,0,0,0-1.79,0l-1,2-2.25.32a1,1,0,0,0-.8.68,1,1,0,0,0,.25,1L7.81,12l-.38,2.23a1,1,0,0,0,.4,1,1,1,0,0,0,1.05.08l2-1.06,2,1.06A1,1,0,0,0,14,15.23a1,1,0,0,0,.4-1L14,12l1.62-1.58A1,1,0,0,0,15.84,9.41ZM12.19,11a1,1,0,0,0-.29.89l.13.76-.68-.36a.93.93,0,0,0-.46-.12,1,1,0,0,0-.47.12l-.68.36.13-.76A1,1,0,0,0,9.58,11L9,10.42l.76-.11a1,1,0,0,0,.75-.55l.34-.69.34.69a1,1,0,0,0,.75.55l.76.11Z"/><path d="M19.83,15.23a1,1,0,0,0,1.05.08l2-1.06,2,1.06A1,1,0,0,0,26,15.23a1,1,0,0,0,.4-1L26,12l1.62-1.58a1,1,0,0,0,.26-1A1,1,0,0,0,27,8.73l-2.24-.32-1-2a1,1,0,0,0-1.79,0l-1,2-2.25.32a1,1,0,0,0-.8.68,1,1,0,0,0,.25,1L19.81,12l-.38,2.23A1,1,0,0,0,19.83,15.23Zm2-4.92a1,1,0,0,0,.75-.55l.34-.69.34.69a1,1,0,0,0,.75.55l.76.11-.55.53a1,1,0,0,0-.29.89l.13.76-.68-.36a.93.93,0,0,0-.46-.12,1,1,0,0,0-.47.12l-.68.36.13-.76a1,1,0,0,0-.29-.89L21,10.42Z"/><path d="M39.84,9.41A1,1,0,0,0,39,8.73l-2.24-.32-1-2a1,1,0,0,0-1.79,0l-1,2-2.25.32a1,1,0,0,0-.8.68,1,1,0,0,0,.25,1L31.81,12l-.38,2.23a1,1,0,0,0,.4,1,1,1,0,0,0,1.05.08l2-1.06,2,1.06A1,1,0,0,0,38,15.23a1,1,0,0,0,.4-1L38,12l1.62-1.58A1,1,0,0,0,39.84,9.41ZM36.19,11a1,1,0,0,0-.29.89l.13.76-.68-.36a.93.93,0,0,0-.46-.12,1,1,0,0,0-.47.12l-.68.36.13-.76a1,1,0,0,0-.29-.89L33,10.42l.76-.11a1,1,0,0,0,.75-.55l.34-.69.34.69a1,1,0,0,0,.75.55l.76.11Z"/><path d="M7,20h.68l9.75,6.82A1,1,0,0,0,18,27a1,1,0,0,0,.46-.11A1,1,0,0,0,19,26V19a1,1,0,0,0-2,0v5.08l-8.43-5.9A.94.94,0,0,0,8,18H7a3,3,0,0,1-3-3V7A3,3,0,0,1,7,4H40a3,3,0,0,1,3,3v8a3,3,0,0,1-3,3H22a1,1,0,0,0,0,2H40a5,5,0,0,0,5-5V7a5,5,0,0,0-5-5H7A5,5,0,0,0,2,7v8A5,5,0,0,0,7,20Z"/><path d="M24,37a1,1,0,0,0,0-2H12a1,1,0,0,0,0,2Z"/></g></g></svg>
