<svg xmlns="http://www.w3.org/2000/svg">
    <symbol xmlns="http://www.w3.org/2000/svg" id="rezart_logo" viewBox="0 0 446.4 267.24">
        <path d="M442.14,240.64,302,.56a1.51,1.51,0,0,0-2.33,0C298.37,1.81,170.74,221,170.74,221l-30.56-51.21.33-1.33S195.32,152,195.32,92.33,135.7,15.52,122.58,15.52H0L20.6,52.76h93.34s47.5-3.56,47.5,40.57-36.19,44.89-42.52,44.89H80.39l70.09,117.71s6.49,11.31,16.94,11.31,14.64-5.43,18.93-11.64S300.63,64.4,300.63,64.4l84.71,141.65L299,156.18,331.19,212l89,51.21s14.13,5.79,22.59-2.33S442.14,240.64,442.14,240.64ZM37.2,158.17,1.33,96.32v149s-.14,14.63,18.27,14.63,17.94-15.3,17.94-15.3Z" />
    </symbol>
    <symbol xmlns="http://www.w3.org/2000/svg" id="closeModal" viewBox="0 0 16 16">
        <path d="M16,1.6,14.4,0,8,6.4,1.6,0,0,1.6,6.4,8,0,14.4,1.6,16,8,9.6,14.4,16,16,14.4,9.6,8Z"/>
    </symbol>
    <symbol xmlns="http://www.w3.org/2000/svg" id="menuBurger" viewBox="0 0 25 16">
        <path d="M.94,1.88H24.06a.94.94,0,1,0,0-1.88H.94a.94.94,0,1,0,0,1.88ZM24.06,7.06H.94a.94.94,0,1,0,0,1.88H24.06a.94.94,0,1,0,0-1.88Zm0,7.06H.94A.94.94,0,1,0,.94,16H24.06a.94.94,0,1,0,0-1.88Z"/>
    </symbol>
    <symbol xmlns="http://www.w3.org/2000/svg" id="arrow" viewBox="0 0 19 15">
        <polyline points="0,9 0,6 15,6 15,9 0,9 "/>
        <polyline points="9.8,2 12,0 19,7.5 16.8,9.5 9.8,2 "/>
        <polyline points="16.8,5.5 19,7.5 12,15 9.8,13 16.8,5.5 "/>
        <polygon points="16.8,9.5 19,7.5 19,7.5 "/>
        <path d="M19,7.5l-2.2-2L19,7.5z"/>
        <polyline points="9.8,2 12,0 19,7.5 16.8,9.5 9.8,2 "/>
    </symbol>
    <symbol xmlns="http://www.w3.org/2000/svg" id="plus" viewBox="0 0 19 19">
        <polyline points="19,8 19,11 0,11 0,8 19,8 "/>
        <polyline points="11,19 8,19 8,0 11,0 11,19 "/>
    </symbol>
    <symbol xmlns="http://www.w3.org/2000/svg" id="icon1" viewBox="0 0 480.008 480.008">
        <path d="M184.004,128c-10.416,0-19.216,6.712-22.528,16H78.532c-3.312-9.288-12.112-16-22.528-16c-13.232,0-24,10.768-24,24s10.768,24,24,24c10.416,0,19.216-6.712,22.528-16h82.952c3.312,9.288,12.112,16,22.528,16c13.232,0,24-10.768,24-24S197.236,128,184.004,128z M56.004,160c-4.408,0-8-3.584-8-8s3.592-8,8-8s8,3.584,8,8S60.412,160,56.004,160z M184.004,160c-4.408,0-8-3.584-8-8s3.592-8,8-8s8,3.584,8,8S188.412,160,184.004,160z"/>
        <path d="M248.004,177.472V128c0-2.128-0.84-4.16-2.344-5.656l-32-32C212.164,88.84,210.124,88,208.004,88h-25.472c-3.312-9.288-12.112-16-22.528-16c-13.232,0-24,10.768-24,24s10.768,24,24,24c10.416,0,19.216-6.712,22.528-16h22.16l27.312,27.312v46.16c-9.288,3.312-16,12.112-16,22.528c0,13.232,10.768,24,24,24s24-10.768,24-24C264.004,189.584,257.292,180.784,248.004,177.472z M160.004,104c-4.408,0-8-3.584-8-8s3.592-8,8-8s8,3.584,8,8S164.412,104,160.004,104z M240.004,208c-4.408,0-8-3.584-8-8s3.592-8,8-8s8,3.584,8,8S244.412,208,240.004,208z"/>
        <path d="M392.004,208c-3.696,0-7.152,0.904-10.28,2.408l-13.72-13.72V120c0-2.128-0.84-4.16-2.344-5.656L285.596,34.28c1.504-3.128,2.408-6.584,2.408-10.28c0-13.232-10.768-24-24-24s-24,10.768-24,24s10.768,24,24,24c3.696,0,7.152-0.904,10.28-2.408l77.72,77.72V200c0,2.128,0.84,4.16,2.344,5.656l16.064,16.064c-1.504,3.128-2.408,6.584-2.408,10.28c0,13.232,10.768,24,24,24s24-10.768,24-24S405.236,208,392.004,208z M264.004,32c-4.408,0-8-3.584-8-8s3.592-8,8-8c4.408,0,8,3.584,8,8S268.412,32,264.004,32z M392.004,240c-4.408,0-8-3.584-8-8s3.592-8,8-8c4.408,0,8,3.584,8,8S396.412,240,392.004,240z"/>
        <path d="M464.004,113.472V80c0-2.128-0.84-4.16-2.344-5.656l-56-56C404.164,16.84,402.124,16,400.004,16h-41.472C355.22,6.712,346.42,0,336.004,0c-13.232,0-24,10.768-24,24s10.768,24,24,24c10.416,0,19.216-6.712,22.528-16h38.16l51.312,51.312v30.16c-9.288,3.312-16,12.112-16,22.528c0,13.232,10.768,24,24,24s24-10.768,24-24C480.004,125.584,473.292,116.784,464.004,113.472z M336.004,32c-4.408,0-8-3.584-8-8s3.592-8,8-8c4.408,0,8,3.584,8,8S340.412,32,336.004,32z M456.004,144c-4.408,0-8-3.584-8-8s3.592-8,8-8c4.408,0,8,3.584,8,8S460.412,144,456.004,144z"/>
        <path d="M352.012,433.48V318.528c9.28-3.312,15.992-12.112,15.992-22.528c0-13.232-10.768-24-24-24c-10.416,0-19.216,6.712-22.528,16h-82.944c-3.312-9.288-12.112-16-22.528-16s-19.216,6.712-22.528,16h-46.16l-29.72-29.72c1.504-3.128,2.408-6.584,2.408-10.28c0-13.232-10.768-24-24-24s-24,10.768-24,24s10.768,24,24,24c3.696,0,7.152-0.904,10.28-2.408l32.064,32.064c1.496,1.504,3.536,2.344,5.656,2.344h49.472c3.312,9.288,12.112,16,22.528,16s19.216-6.712,22.528-16h82.952c2.416,6.776,7.752,12.112,14.528,14.528V433.48c-9.288,3.312-16,12.112-16,22.528c0,13.232,10.768,24,24,24s24-10.768,24-24C368.012,445.592,361.3,436.792,352.012,433.48z M96.004,256c-4.408,0-8-3.584-8-8c0-4.416,3.592-8,8-8s8,3.584,8,8C104.004,252.416,100.412,256,96.004,256z M216.004,304c-4.408,0-8-3.584-8-8c0-4.416,3.592-8,8-8s8,3.584,8,8C224.004,300.416,220.412,304,216.004,304z M344.004,464c-4.408,0-8-3.584-8-8c0-4.416,3.592-8,8-8c4.408,0,8,3.584,8,8C352.004,460.416,348.412,464,344.004,464z M344.004,304c-4.408,0-8-3.584-8-8c0-4.416,3.592-8,8-8c4.408,0,8,3.584,8,8C352.004,300.416,348.412,304,344.004,304z"/>
        <path d="M312.004,161.472V136c0-2.128-0.84-4.16-2.344-5.656L213.596,34.28c1.504-3.128,2.408-6.584,2.408-10.28c0-13.232-10.768-24-24-24c-10.416,0-19.216,6.712-22.528,16h-33.472c-4.416,0-8,3.576-8,8v20.688l-29.72,29.72C95.156,72.904,91.7,72,88.004,72c-13.232,0-24,10.768-24,24s10.768,24,24,24s24-10.768,24-24c0-3.696-0.904-7.152-2.408-10.28l32.064-32.064c1.504-1.496,2.344-3.528,2.344-5.656V32h25.472c3.312,9.288,12.112,16,22.528,16c3.696,0,7.152-0.904,10.28-2.408l93.72,93.72v22.16c-9.288,3.312-16,12.112-16,22.528c0,13.232,10.768,24,24,24s24-10.768,24-24C328.004,173.584,321.292,164.784,312.004,161.472z M88.004,104c-4.408,0-8-3.584-8-8s3.592-8,8-8s8,3.584,8,8S92.412,104,88.004,104z M192.004,32c-4.408,0-8-3.584-8-8s3.592-8,8-8s8,3.584,8,8S196.412,32,192.004,32z M304.004,192c-4.408,0-8-3.584-8-8s3.592-8,8-8c4.408,0,8,3.584,8,8S308.412,192,304.004,192z"/>
        <path d="M288.004,224c-10.416,0-19.216,6.712-22.528,16h-94.16l-45.656-45.656c-1.496-1.504-3.536-2.344-5.656-2.344H35.316l-19.312-19.312v-65.376l61.72-61.72C80.852,47.096,84.308,48,88.004,48c13.232,0,24-10.768,24-24s-10.768-24-24-24s-24,10.768-24,24c0,3.696,0.904,7.152,2.408,10.28L2.348,98.344C0.844,99.84,0.004,101.872,0.004,104v72c0,2.128,0.84,4.16,2.344,5.656l24,24c1.496,1.504,3.536,2.344,5.656,2.344h84.688l45.656,45.656c1.496,1.504,3.536,2.344,5.656,2.344h97.472c3.312,9.288,12.112,16,22.528,16c13.232,0,24-10.768,24-24S301.236,224,288.004,224z M88.004,16c4.408,0,8,3.584,8,8s-3.592,8-8,8s-8-3.584-8-8S83.596,16,88.004,16z M288.004,256c-4.408,0-8-3.584-8-8c0-4.416,3.592-8,8-8c4.408,0,8,3.584,8,8C296.004,252.416,292.412,256,288.004,256z"/>
        <path d="M456.004,192c-3.696,0-7.152,0.904-10.28,2.408l-29.72-29.72v-46.16c9.288-3.312,16-12.112,16-22.528c0-13.232-10.768-24-24-24s-24,10.768-24,24c0,10.416,6.712,19.216,16,22.528V168c0,2.128,0.84,4.16,2.344,5.656l32.064,32.064c-1.504,3.128-2.408,6.584-2.408,10.28c0,10.416,6.712,19.216,16,22.528v6.16l-61.656,61.656c-1.504,1.496-2.344,3.528-2.344,5.656v9.472c-9.288,3.312-16,12.112-16,22.528s6.712,19.216,16,22.528v18.952c-9.288,3.312-16,12.112-16,22.528c0,13.232,10.768,24,24,24s24-10.768,24-24c0-10.416-6.712-19.216-16-22.528v-18.952c9.288-3.312,16-12.112,16-22.528c0-10.416-6.712-19.216-16-22.528v-6.16l61.656-61.656c1.504-1.496,2.344-3.528,2.344-5.656v-9.472c9.288-3.312,16-12.112,16-22.528C480.004,202.768,469.236,192,456.004,192z M408.004,104c-4.408,0-8-3.584-8-8s3.592-8,8-8c4.408,0,8,3.584,8,8S412.412,104,408.004,104z M392.004,416c-4.408,0-8-3.584-8-8c0-4.416,3.592-8,8-8c4.408,0,8,3.584,8,8C400.004,412.416,396.412,416,392.004,416z M392.004,352c-4.408,0-8-3.584-8-8c0-4.416,3.592-8,8-8c4.408,0,8,3.584,8,8C400.004,348.416,396.412,352,392.004,352z M456.004,224c-4.408,0-8-3.584-8-8s3.592-8,8-8c4.408,0,8,3.584,8,8S460.412,224,456.004,224z"/>
    </symbol>
    <symbol xmlns="http://www.w3.org/2000/svg" id="icon2" viewBox="0 0 496 496">
        <path d="M480,48c4.424,0,8-3.584,8-8V8c0-4.416-3.576-8-8-8H96C47.48,0,8,39.48,8,88c0,35.512,21.192,66.112,51.552,80C29.192,181.888,8,212.488,8,248c0,35.512,21.192,66.112,51.552,80C29.192,341.888,8,372.488,8,408c0,48.52,39.48,88,88,88h384c4.424,0,8-3.584,8-8v-32c0-4.416-3.576-8-8-8h-4.464c-20.432-22.696-20.432-57.304,0-80H480c4.424,0,8-3.584,8-8v-32v-32c0-4.416-3.576-8-8-8h-4.464c-20.432-22.696-20.432-57.304,0-80H480c4.424,0,8-3.584,8-8v-32v-32c0-4.416-3.576-8-8-8h-4.464c-20.432-22.696-20.432-57.304,0-80H480z M472,352H96c-30.872,0-56,25.12-56,56s25.128,56,56,56h376v16H96c-39.704,0-72-32.304-72-72s32.296-72,72-72h376V352z M455.592,448H96c-22.056,0-40-17.944-40-40c0-22.056,17.944-40,40-40h359.592C440.432,392.416,440.432,423.584,455.592,448z M472,192H96c-30.872,0-56,25.12-56,56s25.128,56,56,56h376v16H96c-39.704,0-72-32.304-72-72s32.296-72,72-72h376V192z M455.592,288H96c-22.056,0-40-17.944-40-40c0-22.056,17.944-40,40-40h359.592C440.432,232.416,440.432,263.584,455.592,288z M472,32H96c-30.872,0-56,25.12-56,56s25.128,56,56,56h376v16H96c-39.704,0-72-32.304-72-72s32.296-72,72-72h376V32z M455.592,128H96c-22.056,0-40-17.944-40-40c0-22.056,17.944-40,40-40h359.592C440.432,72.416,440.432,103.584,455.592,128z"/>
        <rect x="128" y="96" width="88" height="16"/>
        <rect x="232" y="96" width="48" height="16"/>
        <rect x="296" y="96" width="16" height="16"/>
        <rect x="328" y="96" width="16" height="16"/>
        <rect x="160" y="64" width="136" height="16"/>
        <rect x="312" y="64" width="48" height="16"/>
        <rect x="376" y="64" width="16" height="16"/>
        <rect x="208" y="256" width="72" height="16"/>
        <rect x="296" y="256" width="16" height="16"/>
        <rect x="328" y="256" width="16" height="16"/>
        <rect x="160" y="224" width="136" height="16"/>
        <rect x="312" y="224" width="48" height="16"/>
        <rect x="376" y="224" width="16" height="16"/>
        <rect x="200" y="416" width="16" height="16"/>
        <rect x="232" y="416" width="48" height="16"/>
        <rect x="296" y="416" width="16" height="16"/>
        <rect x="328" y="416" width="16" height="16"/>
        <rect x="360" y="416" width="16" height="16"/>
        <rect x="200" y="384" width="96" height="16"/>
        <rect x="312" y="384" width="48" height="16"/>
        <rect x="376" y="384" width="16" height="16"/>
        <path d="M176,384h-48c-4.424,0-8,3.584-8,8v40c0,2.952,1.624,5.664,4.224,7.056c2.592,1.392,5.768,1.232,8.208-0.4L152,425.616l19.56,13.04c1.336,0.896,2.888,1.344,4.44,1.344c1.296,0,2.592-0.312,3.776-0.944c2.6-1.392,4.224-4.104,4.224-7.056v-40C184,387.584,180.424,384,176,384z M168,417.048l-11.56-7.704c-1.344-0.896-2.896-1.344-4.44-1.344s-3.096,0.448-4.44,1.344L136,417.048V400h32V417.048z"/>
        <rect x="136" y="256" width="40" height="16"/>
    </symbol>
    <symbol xmlns="http://www.w3.org/2000/svg" id="icon3" viewBox="0 0 480 480">
        <path d="M472,240h-64v-32c0-3.384-2.128-6.4-5.312-7.536L296,162.36V144h56c22.056,0,40-17.944,40-40c0-19.32-13.768-35.488-32.008-39.2C360,64.536,360,64.264,360,64c0-22.056-17.944-40-40-40c-3.648,0-7.296,0.528-10.84,1.56C303.36,10.456,288.832,0,272,0c-13.128,0-24.704,6.448-32,16.248C232.704,6.448,221.128,0,208,0c-16.832,0-31.36,10.456-37.16,25.56C167.296,24.528,163.656,24,160,24c-22.056,0-40,17.944-40,40c0,0.264,0,0.536,0.008,0.8C101.768,68.512,88,84.68,88,104c0,22.056,17.944,40,40,40h56v18.36L77.312,200.464C74.128,201.6,72,204.616,72,208v32H40c-22.056,0-40,17.944-40,40v160c0,22.056,17.944,40,40,40h96c4.416,0,8-3.584,8-8V312v-64c0-4.416-3.584-8-8-8H88v-26.36l106.688-38.104C197.872,174.4,200,171.384,200,168v-24h8c9.04,0,17.296-3.128,24-8.208V240h-24c-22.056,0-40,17.944-40,40v160c0,22.056,17.944,40,40,40h96c4.416,0,8-3.584,8-8V312v-64c0-4.416-3.584-8-8-8h-56V135.792c6.704,5.08,14.96,8.208,24,8.208h8v24c0,3.384,2.128,6.4,5.312,7.536L392,213.64V240h-16c-22.056,0-40,17.944-40,40v160c0,22.056,17.944,40,40,40h96c4.416,0,8-3.584,8-8V312v-64C480,243.584,476.416,240,472,240z M128,464H40c-13.232,0-24-10.768-24-24V311.984c0.304,0.232,0.664,0.4,0.976,0.624c0.664,0.472,1.368,0.88,2.064,1.312c1.344,0.832,2.72,1.592,4.16,2.264c0.784,0.368,1.568,0.712,2.384,1.032c1.536,0.6,3.12,1.072,4.744,1.472c0.76,0.192,1.488,0.424,2.264,0.568C34.992,319.704,37.456,320,40,320h88V464z M128,256v48H40c-13.232,0-24-10.768-24-24s10.768-24,24-24h32v24h16v-24H128z M215.256,126.76c-2.376-16.288-10.84-30.6-23.08-40.504c0.888-8,7.6-14.256,15.824-14.256V56c-13.96,0-25.728,9.04-30.096,21.528C169.976,74,161.224,72,152,72v16c23.736,0,43.448,17.336,47.28,40h-45.056c2.776-4.76,7.88-8,13.776-8v-16c-14.864,0-27.288,10.24-30.864,24H128c-13.232,0-24-10.768-24-24s10.768-24,23.504-24.016c0.272,0.04,1.072,0.12,1.344,0.128c2.472,0.072,4.968-1.008,6.552-2.984c1.592-1.984,2.144-4.592,1.496-7.048C136.288,67.744,136,65.808,136,64c0-13.232,10.768-24,24-24c4.248,0,8.36,1.176,12.232,3.488c2.344,1.408,5.248,1.512,7.68,0.296c2.44-1.216,4.096-3.6,4.384-6.312C185.6,25.232,195.792,16,208,16c13.232,0,24,10.768,24,24v64C232,114.688,224.928,123.664,215.256,126.76z M296,464h-88c-13.232,0-24-10.768-24-24V311.984c0.304,0.232,0.664,0.4,0.976,0.624c0.664,0.472,1.368,0.88,2.064,1.312c1.344,0.832,2.72,1.592,4.16,2.264c0.784,0.368,1.568,0.712,2.384,1.032c1.536,0.6,3.12,1.072,4.744,1.472c0.76,0.192,1.488,0.424,2.264,0.568c2.4,0.448,4.864,0.744,7.408,0.744h88V464z M296,256v48h-88c-13.232,0-24-10.768-24-24s10.768-24,24-24h24v24h16v-24H296z M280.72,128c3.824-22.664,23.536-40,47.28-40V72c-9.224,0-17.976,2-25.904,5.528C297.728,65.04,285.96,56,272,56v16c8.224,0,14.936,6.256,15.824,14.248c-12.24,9.904-20.704,24.224-23.08,40.504C255.072,123.664,248,114.688,248,104V40c0-13.232,10.768-24,24-24c12.208,0,22.4,9.232,23.704,21.472c0.296,2.704,1.944,5.088,4.384,6.304s5.336,1.112,7.68-0.288C311.64,41.168,315.752,40,320,40c13.232,0,24,10.768,24,24c0,1.808-0.288,3.744-0.904,6.072c-0.648,2.456-0.096,5.072,1.496,7.048c1.584,1.976,3.992,3.056,6.552,2.984c0.464-0.008,0.904-0.064,0.856-0.104c13.232,0,24,10.768,24,24s-10.768,24-24,24h-9.136c-3.576-13.76-16-24-30.864-24v16c5.896,0,11,3.24,13.776,8H280.72z M464,464h-88c-13.232,0-24-10.768-24-24V311.984c0.304,0.232,0.664,0.4,0.976,0.624c0.664,0.472,1.368,0.88,2.064,1.312c1.344,0.832,2.72,1.592,4.16,2.264c0.784,0.368,1.568,0.712,2.384,1.032c1.536,0.6,3.12,1.072,4.744,1.472c0.76,0.192,1.488,0.424,2.264,0.568c2.4,0.448,4.864,0.744,7.408,0.744h88V464z M464,304h-88c-13.232,0-24-10.768-24-24s10.768-24,24-24h16v24h16v-24h56V304z"/>
        <path d="M104,336H48c-4.416,0-8,3.584-8,8v32c0,4.416,3.584,8,8,8h56c4.416,0,8-3.584,8-8v-32C112,339.584,108.416,336,104,336zM96,368H56v-16h40V368z"/>
        <rect x="40" y="400" width="72" height="16"/>
        <rect x="56" y="432" width="40" height="16"/>
        <path d="M272,336h-56c-4.416,0-8,3.584-8,8v32c0,4.416,3.584,8,8,8h56c4.416,0,8-3.584,8-8v-32C280,339.584,276.416,336,272,336zM264,368h-40v-16h40V368z"/>
        <rect x="208" y="400" width="72" height="16"/>
        <rect x="224" y="432" width="40" height="16"/>
        <path d="M440,336h-56c-4.416,0-8,3.584-8,8v32c0,4.416,3.584,8,8,8h56c4.416,0,8-3.584,8-8v-32C448,339.584,444.416,336,440,336zM432,368h-40v-16h40V368z"/>
        <rect x="376" y="400" width="72" height="16"/>
        <rect x="392" y="432" width="40" height="16"/>
        <rect x="416" y="96" width="16" height="16"/>
        <rect x="448" y="96" width="16" height="16"/>
        <rect x="448" y="128" width="16" height="16"/>
        <rect x="448" y="64" width="16" height="16"/>
        <rect x="48" y="96" width="16" height="16"/>
        <rect x="16" y="96" width="16" height="16"/>
        <rect x="16" y="128" width="16" height="16"/>
        <rect x="16" y="64" width="16" height="16"/>
    </symbol>
    <symbol xmlns="http://www.w3.org/2000/svg" id="icon4" viewBox="-16 0 480 480">
        <path d="m399.449219 416.550781c-3.152344-23.570312-20.859375-42.574219-44.148438-47.378906-23.289062-4.808594-47.074219 5.632813-59.300781 26.027344-10.125-16.847657-28.34375-27.15625-48-27.15625s-37.875 10.308593-48 27.15625c-10.125-16.847657-28.34375-27.15625-48-27.15625s-37.875 10.308593-48 27.15625c-12.957031-21.5625-38.703125-31.835938-62.945312-25.125-24.242188 6.714843-41.0351568 28.769531-41.054688 53.925781 0 4.417969 3.582031 8 8 8s8-3.582031 8-8c.175781-20.546875 15.890625-37.621094 36.355469-39.492188 20.464843-1.871093 39.019531 12.066407 42.917969 32.246094-27.199219 4.289063-47.238282 27.714844-47.273438 55.246094 0 4.417969 3.582031 8 8 8s8-3.582031 8-8c0-22.089844 17.910156-40 40-40s40 17.910156 40 40c0 4.417969 3.582031 8 8 8s8-3.582031 8-8c-.03125-27.53125-20.070312-50.953125-47.265625-55.246094 3.730469-20.335937 22.355469-34.46875 42.945313-32.585937 20.585937 1.882812 36.339843 19.160156 36.320312 39.832031 0 4.417969 3.582031 8 8 8s8-3.582031 8-8c.175781-20.546875 15.890625-37.621094 36.355469-39.492188 20.464843-1.871093 39.019531 12.066407 42.917969 32.246094-27.199219 4.289063-47.238282 27.714844-47.273438 55.246094 0 4.417969 3.582031 8 8 8s8-3.582031 8-8c0-22.089844 17.910156-40 40-40s40 17.910156 40 40c0 4.417969 3.582031 8 8 8s8-3.582031 8-8c0-22.089844 17.910156-40 40-40s40 17.910156 40 40c0 4.417969 3.582031 8 8 8s8-3.582031 8-8c-.046875-28.019531-20.78125-51.699219-48.550781-55.449219zm-55.449219 26.648438c-8.554688-14.160157-22.921875-23.820313-39.265625-26.398438 3.472656-18.960937 19.992187-32.734375 39.269531-32.734375s35.796875 13.773438 39.269532 32.734375c-16.34375 2.578125-30.714844 12.238281-39.273438 26.398438zm0 0"/>
        <path d="m64 280h24v8c0 4.417969 3.582031 8 8 8h2.761719l-11.5625 20c-6.625 11.488281-2.6875 26.171875 8.800781 32.800781 11.488281 6.625 26.171875 2.6875 32.800781-8.800781l25.382813-44h45.816406v40c0 13.253906 10.746094 24 24 24s24-10.746094 24-24v-40h49.808594l25.390625 44c6.628906 11.488281 21.3125 15.425781 32.800781 8.800781 11.488281-6.628906 15.425781-21.3125 8.800781-32.800781l-11.671875-20.222656c3.910156-.515625 6.839844-3.832032 6.871094-7.777344v-8h24c13.253906 0 24-10.746094 24-24v-184c0-13.253906-10.746094-24-24-24h-88v-8c0-4.417969-3.582031-8-8-8h-40v-8c0-13.253906-10.746094-24-24-24s-24 10.746094-24 24v8h-40c-4.417969 0-8 3.582031-8 8v8h-88c-13.253906 0-24 10.746094-24 24v184c0 13.253906 10.746094 24 24 24zm50.921875 52c-2.277344 3.675781-7.0625 4.882812-10.808594 2.71875-3.742187-2.164062-5.089843-6.910156-3.042969-10.71875l16.160157-28h18.480469zm117.078125 4c0 4.417969-3.582031 8-8 8s-8-3.582031-8-8v-40h16zm119.71875-5.9375c-.835938 3.125-3.472656 5.433594-6.675781 5.859375-3.207031.421875-6.351563-1.125-7.972657-3.921875l-20.796874-36h18.46875l16.167968 28c1.074219 1.832031 1.363282 4.015625.808594 6.0625zm-135.71875-306.0625c0-4.417969 3.582031-8 8-8s8 3.582031 8 8v8h-16zm-48 24h112v16h-112zm-112 24c0-4.417969 3.582031-8 8-8h88v8c0 4.417969 3.582031 8 8 8h128c4.417969 0 8-3.582031 8-8v-8h88c4.417969 0 8 3.582031 8 8v184c0 4.417969-3.582031 8-8 8h-24v-8c0-4.417969-3.582031-8-8-8h-88c-4.417969 0-8 3.582031-8 8s3.582031 8 8 8h80v16h-240v-16h80c4.417969 0 8-3.582031 8-8s-3.582031-8-8-8h-88c-4.417969 0-8 3.582031-8 8v8h-24c-4.417969 0-8-3.582031-8-8zm0 0"/>
        <path d="m112 136h48c4.417969 0 8-3.582031 8-8s-3.582031-8-8-8h-48c-4.417969 0-8 3.582031-8 8s3.582031 8 8 8zm0 0"/>
        <path d="m96 176h64c4.417969 0 8-3.582031 8-8s-3.582031-8-8-8h-64c-4.417969 0-8 3.582031-8 8s3.582031 8 8 8zm0 0"/>
        <path d="m96 208h16c4.417969 0 8-3.582031 8-8s-3.582031-8-8-8h-16c-4.417969 0-8 3.582031-8 8s3.582031 8 8 8zm0 0"/>
        <path d="m272 168h48c4.417969 0 8-3.582031 8-8s-3.582031-8-8-8h-40v-32h40c4.417969 0 8-3.582031 8-8s-3.582031-8-8-8h-48c-4.417969 0-8 3.582031-8 8v48c0 4.417969 3.582031 8 8 8zm0 0"/>
        <path d="m264 200h24c4.417969 0 8-3.582031 8-8s-3.582031-8-8-8h-24c-4.417969 0-8 3.582031-8 8s3.582031 8 8 8zm0 0"/>
        <path d="m312 192c0 4.417969 3.582031 8 8 8h16c4.417969 0 8-3.582031 8-8s-3.582031-8-8-8h-16c-4.417969 0-8 3.582031-8 8zm0 0"/>
        <path d="m352 160c4.417969 0 8-3.582031 8-8v-32c0-4.417969-3.582031-8-8-8s-8 3.582031-8 8v32c0 4.417969 3.582031 8 8 8zm0 0"/>
    </symbol>
    <symbol xmlns="http://www.w3.org/2000/svg" id="icon5" viewBox="0 0 480 480">
        <path d="m304 144c0 4.417969-3.582031 8-8 8s-8-3.582031-8-8 3.582031-8 8-8 8 3.582031 8 8zm0 0"/>
        <path d="m368 144c0 4.417969-3.582031 8-8 8s-8-3.582031-8-8 3.582031-8 8-8 8 3.582031 8 8zm0 0"/>
        <path d="m319.847656 58.398438c18.566406-6.507813 39.148438.910156 49.296875 17.761718 1.457031 2.390625 4.054688 3.847656 6.855469 3.839844 2.882812-.003906 5.539062-1.554688 6.957031-4.066406 1.414063-2.507813 1.375-5.582032-.109375-8.054688-14.085937-23.347656-42.613281-33.617187-68.351562-24.605468-4.175782 1.476562-6.367188 6.0625-4.886719 10.238281 1.476563 4.179687 6.0625 6.367187 10.238281 4.886719zm0 0"/>
        <path d="m472 464h-464c-4.417969 0-8 3.582031-8 8s3.582031 8 8 8h464c4.417969 0 8-3.582031 8-8s-3.582031-8-8-8zm0 0"/>
        <path d="m232 232c0-4.417969-3.582031-8-8-8h-104c-4.417969 0-8 3.582031-8 8s3.582031 8 8 8h104c4.417969 0 8-3.582031 8-8zm0 0"/>
        <path d="m184 256h-24c-4.417969 0-8 3.582031-8 8s3.582031 8 8 8h24c4.417969 0 8-3.582031 8-8s-3.582031-8-8-8zm0 0"/>
        <path d="m472 400c4.417969 0 8-3.582031 8-8s-3.582031-8-8-8h-40v-32h40c4.417969 0 8-3.582031 8-8s-3.582031-8-8-8h-112c-13.253906 0-24 10.746094-24 24v16c.027344 2.730469.523438 5.4375 1.472656 8h-17.472656c-13.253906 0-24 10.746094-24 24v16c.027344 2.730469.523438 5.4375 1.472656 8h-25.472656v-8c0-13.253906-10.746094-24-24-24h-32v-32h64c17.671875 0 32-14.328125 32-32v-50.105469c32.476562 8.574219 66.015625-9.59375 76.574219-41.480469 28.429687 10.339844 47.375 37.335938 47.425781 67.585938 0 4.417969 3.582031 8 8 8s8-3.582031 8-8c-.074219-40.46875-27.714844-75.683594-67.007812-85.367188h-.3125c-2.527344-.617187-5.09375-1.105468-7.703126-1.496093 12.992188-8.765625 23.421876-20.820313 30.222657-34.9375 22.097656-3.863281 48.800781-15.488281 48.800781-62.199219 0-70.691406-57.308594-128-128-128s-128 57.308594-128 128c0 24.113281 7.144531 38.824219 17.078125 48h-161.078125c-17.671875 0-32 14.328125-32 32v128c0 17.671875 14.328125 32 32 32h64v32h-32c-13.253906 0-24 10.746094-24 24v8h-56c-4.417969 0-8 3.582031-8 8s3.582031 8 8 8h464c4.417969 0 8-3.582031 8-8s-3.582031-8-8-8h-32v-32zm-120-24v-16c0-4.417969 3.582031-8 8-8h56v32h-56c-4.417969 0-8-3.582031-8-8zm-24-104c-5.453125.003906-10.867188-.933594-16-2.769531v-29.230469h52c2.941406.007812 5.882812.207031 8.800781.59375h.214844c-6.949219 18.859375-24.914063 31.394531-45.015625 31.40625zm0-256c61.828125.066406 111.933594 50.171875 112 112 0 28-9.847656 39.273438-26.464844 44.328125 1.613282-6.65625 2.4375-13.480469 2.464844-20.328125v-48c0-4.417969-3.582031-8-8-8h-96c-4.417969 0-8 3.582031-8 8s3.582031 8 8 8h88v40c.25 21.980469-9.671875 42.84375-26.875 56.527344s-39.765625 18.652344-61.125 13.464844v-13.992188c0-17.671875-14.328125-32-32-32h-19.777344c-2.777344-7.699219-4.203125-15.816406-4.222656-24v-40h16c4.417969 0 8-3.582031 8-8s-3.582031-8-8-8h-24c-4.417969 0-8 3.582031-8 8v48c.023438 6.847656.855469 13.671875 2.472656 20.328125-16.617187-5.054687-26.472656-16.328125-26.472656-44.328125.066406-61.828125 50.171875-111.933594 112-112zm-192 320c0-13.253906 10.746094-24 24-24h16c4.417969 0 8-3.582031 8-8s-3.582031-8-8-8h-16c-22.082031.027344-39.972656 17.917969-40 40v16h-64c-8.835938 0-16-7.164062-16-16v-128c0-8.835938 7.164062-16 16-16h224c8.835938 0 16 7.164062 16 16v128c0 8.835938-7.164062 16-16 16h-64v-16c0-4.417969-3.582031-8-8-8s-8 3.582031-8 8v64h-64zm-56 88c0-4.417969 3.582031-8 8-8h160c4.417969 0 8 3.582031 8 8v8h-176zm240 8c-4.417969 0-8-3.582031-8-8v-16c0-4.417969 3.582031-8 8-8h40v32zm104 0h-48v-32h48zm0 0"/>
    </symbol>
    <symbol xmlns="http://www.w3.org/2000/svg" id="icon6" viewBox="0 0 480 480">
        <path d="m292 248c-15.464844 0-28 12.535156-28 28s12.535156 28 28 28 28-12.535156 28-28-12.535156-28-28-28zm0 40c-6.628906 0-12-5.371094-12-12s5.371094-12 12-12 12 5.371094 12 12-5.371094 12-12 12zm0 0"/>
        <path d="m168 112h-80c-4.417969 0-8 3.582031-8 8s3.582031 8 8 8h80c4.417969 0 8-3.582031 8-8s-3.582031-8-8-8zm0 0"/>
        <path d="m64 168h40c4.417969 0 8-3.582031 8-8s-3.582031-8-8-8h-40c-4.417969 0-8 3.582031-8 8s3.582031 8 8 8zm0 0"/>
        <path d="m168 184h-104c-4.417969 0-8 3.582031-8 8s3.582031 8 8 8h104c4.417969 0 8-3.582031 8-8s-3.582031-8-8-8zm0 0"/>
        <path d="m104 216h-40c-4.417969 0-8 3.582031-8 8s3.582031 8 8 8h40c4.417969 0 8-3.582031 8-8s-3.582031-8-8-8zm0 0"/>
        <path d="m168 152h-24c-4.417969 0-8 3.582031-8 8s3.582031 8 8 8h24c4.417969 0 8-3.582031 8-8s-3.582031-8-8-8zm0 0"/>
        <path d="m272 112c-4.417969 0-8 3.582031-8 8v40h-32v-40c0-4.417969-3.582031-8-8-8s-8 3.582031-8 8v48c0 4.417969 3.582031 8 8 8h48c4.417969 0 8-3.582031 8-8v-48c0-4.417969-3.582031-8-8-8zm0 0"/>
        <path d="m328 112h-24c-4.417969 0-8 3.582031-8 8s3.582031 8 8 8h24c4.417969 0 8-3.582031 8-8s-3.582031-8-8-8zm0 0"/>
        <path d="m312 144h-8c-4.417969 0-8 3.582031-8 8s3.582031 8 8 8h8c4.417969 0 8-3.582031 8-8s-3.582031-8-8-8zm0 0"/>
        <path d="m408 40c-4.417969 0-8 3.582031-8 8v48c0 4.417969 3.582031 8 8 8s8-3.582031 8-8v-48c0-4.417969-3.582031-8-8-8zm0 0"/>
        <path d="m480 256v-216c-.027344-22.082031-17.917969-39.9726562-40-40h-384c-22.082031.0273438-39.972656 17.917969-40 40v216c.027344 22.082031 17.917969 39.972656 40 40h160v16c.027344 2.730469.523438 5.4375 1.472656 8h-1.472656c-13.253906 0-24 10.746094-24 24v40c0 13.253906 10.746094 24 24 24h240c13.253906 0 24-10.746094 24-24v-40c-.042969-10.132812-6.445312-19.148438-16-22.527344v-25.472656c-.039062-2.601562-.222656-5.199219-.542969-7.785156 10.367188-7.457032 16.523438-19.441406 16.542969-32.214844zm-248 56v-80c0-4.417969 3.582031-8 8-8h104c4.417969 0 8 3.582031 8 8v88h-112c-4.417969 0-8-3.582031-8-8zm120-112c-.058594-18.628906 12.707031-34.847656 30.832031-39.164062 18.121094-4.316407 36.828125 4.40625 45.171875 21.0625 8.34375 16.652343 4.128906 36.863281-10.175781 48.792968-14.308594 11.929688-34.941406 12.445313-49.828125 1.246094v-.066406c-.054688-9.546875-5.765625-18.15625-14.542969-21.917969-.910156-3.242187-1.398437-6.585937-1.457031-9.953125zm96 96v24h-16v-16c0-8.835938-7.164062-16-16-16h-48v-37.464844c16.828125 8.078125 36.585938 7.152344 52.585938-2.464844 17 9.976563 27.433593 28.21875 27.414062 47.929688zm-80 24v-16h48v16zm96 64c0 4.417969-3.582031 8-8 8h-240c-4.417969 0-8-3.582031-8-8v-40c0-4.417969 3.582031-8 8-8h240c4.417969 0 8 3.582031 8 8zm0-128c-.019531 5.167969-1.730469 10.1875-4.871094 14.289062-5.042968-13.273437-13.929687-24.738281-25.527344-32.929687 16.734376-18.574219 19.132813-45.992187 5.875-67.1875-13.257812-21.195313-38.964843-31.035156-62.988281-24.109375-24.023437 6.925781-40.546875 28.9375-40.488281 53.9375.039062 2.679688.273438 5.355469.703125 8h-96.703125c-13.253906 0-24 10.746094-24 24v48h-160c-13.253906 0-24-10.746094-24-24v-216c0-13.253906 10.746094-24 24-24h384c13.253906 0 24 10.746094 24 24zm0 0"/>
        <path d="m352 40h-224c-4.417969 0-8 3.582031-8 8v32c0 4.417969 3.582031 8 8 8h56c4.417969 0 8-3.582031 8-8s-3.582031-8-8-8h-48v-16h208v16h-112c-4.417969 0-8 3.582031-8 8s3.582031 8 8 8h120c4.417969 0 8-3.582031 8-8v-32c0-4.417969-3.582031-8-8-8zm0 0"/>
        <path d="m360 432c-12.589844 0-24.445312 5.929688-32 16-7.554688-10.070312-19.410156-16-32-16s-24.445312 5.929688-32 16c-7.554688-10.070312-19.410156-16-32-16s-24.445312 5.929688-32 16c-7.554688-10.070312-19.410156-16-32-16s-24.445312 5.929688-32 16c-7.554688-10.070312-19.410156-16-32-16s-24.445312 5.929688-32 16c-10.332031-13.773438-28.316406-19.390625-44.648438-13.949219-16.335937 5.445313-27.351562 20.730469-27.351562 37.949219 0 4.417969 3.582031 8 8 8s8-3.582031 8-8c0-13.253906 10.746094-24 24-24s24 10.746094 24 24c0 4.417969 3.582031 8 8 8s8-3.582031 8-8c0-13.253906 10.746094-24 24-24s24 10.746094 24 24c0 4.417969 3.582031 8 8 8s8-3.582031 8-8c0-13.253906 10.746094-24 24-24s24 10.746094 24 24c0 4.417969 3.582031 8 8 8s8-3.582031 8-8c0-13.253906 10.746094-24 24-24s24 10.746094 24 24c0 4.417969 3.582031 8 8 8s8-3.582031 8-8c0-13.253906 10.746094-24 24-24s24 10.746094 24 24c0 4.417969 3.582031 8 8 8s8-3.582031 8-8c0-13.253906 10.746094-24 24-24s24 10.746094 24 24c0 4.417969 3.582031 8 8 8s8-3.582031 8-8c-.027344-22.082031-17.917969-39.972656-40-40zm0 0"/>
    </symbol>
    <symbol xmlns="http://www.w3.org/2000/svg" id="icon7" viewBox="0 0 64 64">
        <circle cx="37" cy="18" r="1"/>
        <circle cx="27" cy="18" r="1"/>
        <path d="m28.46 26.54a5 5 0 0 0 7.08 0 1 1 0 1 0 -1.42-1.42 3 3 0 0 1 -4.24 0 1 1 0 0 0 -1.42 1.42z"/>
        <path d="m20 42a1 1 0 0 0 -1 1v18a1 1 0 0 0 2 0v-18a1 1 0 0 0 -1-1z"/>
        <path d="m22 31h-2a9 9 0 0 0 -9 9v21a1 1 0 0 0 2 0v-21a7 7 0 0 1 7-7h2a1 1 0 0 0 0-2z"/>
        <path d="m44 31h-5v-.52a11 11 0 0 0 4-8.48v-10a1 1 0 0 0 -1-1h-10a1 1 0 0 0 0 2h9v9a9 9 0 0 1 -18 .41c0-.14 0-.27 0-.4v-9.01h5a1 1 0 0 0 0-2h-6a1 1 0 0 0 -1 1v8.72a7 7 0 0 1 -3-5.72v-11h19a9 9 0 0 1 9 9 8.86 8.86 0 0 1 -.9 3.88 1 1 0 0 0 1.8.87 10.87 10.87 0 0 0 1.1-4.75 11 11 0 0 0 -11-11h-20a1 1 0 0 0 -1 1v12a8.94 8.94 0 0 0 5.05 8.06 11 11 0 0 0 3.95 7.42v1.52a7 7 0 0 0 13.92 1h5.08a7 7 0 0 1 7 7v11a5 5 0 0 1 -5 5h-7v-6h5a1 1 0 0 0 1-1v-7a1 1 0 0 0 -2 0v6h-6v-4a1 1 0 0 0 -1-1h-2a3 3 0 0 0 -3 3v2h-1a3 3 0 0 0 -3 3v4a3 3 0 0 0 3 3h13v3a1 1 0 0 0 2 0v-3h1a7 7 0 0 0 7-7v-11a9 9 0 0 0 -9-9zm-12 6a5 5 0 0 1 -5-5v-.21a10.94 10.94 0 0 0 10 0v.21a5 5 0 0 1 -5 5zm-2 19a1 1 0 0 1 -1-1v-4a1 1 0 0 1 1-1h3a1 1 0 0 0 0-2v-2a1 1 0 0 1 1-1h1v4a1 1 0 0 0 1 1h1v6z"/>
    </symbol>
    <symbol xmlns="http://www.w3.org/2000/svg" id="icon8" viewBox="0 0 64 64">
        <path d="M61,57H58V44a5,5,0,0,0-5-5H50.64A9,9,0,0,0,54,32v-.1A8,8,0,0,0,50,17H47.62a1,1,0,0,0,0,2H50a6,6,0,0,1,4,10.46V24a1,1,0,0,0-1-1H44a1,1,0,0,0,0,2h8v7a7,7,0,0,1-14,0V25h2a1,1,0,0,0,0-2H37a1,1,0,0,0-1,1v5.46A6,6,0,0,1,34,25V23a1,1,0,0,0-2,0v2a8,8,0,0,0,1.11,4L33,29H3a1,1,0,0,0-1,1V40a1,1,0,0,0,2,0V31H32V49H23V46a5,5,0,0,0-10,0v3H4V44a1,1,0,0,0-2,0v6a1,1,0,0,0,1,1H13v2H10a1,1,0,0,0,0,2H26a1,1,0,0,1,1,1v1H3a1,1,0,0,0-1,1v4a1,1,0,0,0,2,0V59H60v3a1,1,0,0,0,2,0V58A1,1,0,0,0,61,57Zm-9-4h4v4H52ZM48,40.49a3,3,0,0,1-5.9,0,8.79,8.79,0,0,0,5.9,0ZM15,53V46a3,3,0,0,1,6,0v7Zm11,0H23V51H33a1,1,0,0,0,1-1V30.26a7.94,7.94,0,0,0,2,1.64V32a9,9,0,0,0,3.36,7H37a1,1,0,0,0,0,2h3.1a5,5,0,0,0,9.8,0H53a3,3,0,0,1,3,3v7H52V47a1,1,0,0,0-2,0V57H40V47a1,1,0,0,0-2,0v4H37a1,1,0,0,0,0,2h1v4H34V54a1,1,0,0,0-2,0v3H29V56A3,3,0,0,0,26,53Z"/>
        <circle cx="42" cy="29" r="1"/>
        <circle cx="48" cy="29" r="1"/>
        <path d="M15.84,9.41A1,1,0,0,0,15,8.73l-2.24-.32-1-2a1,1,0,0,0-1.79,0l-1,2-2.25.32a1,1,0,0,0-.8.68,1,1,0,0,0,.25,1L7.81,12l-.38,2.23a1,1,0,0,0,.4,1,1,1,0,0,0,1.05.08l2-1.06,2,1.06A1,1,0,0,0,14,15.23a1,1,0,0,0,.4-1L14,12l1.62-1.58A1,1,0,0,0,15.84,9.41ZM12.19,11a1,1,0,0,0-.29.89l.13.76-.68-.36a.93.93,0,0,0-.46-.12,1,1,0,0,0-.47.12l-.68.36.13-.76A1,1,0,0,0,9.58,11L9,10.42l.76-.11a1,1,0,0,0,.75-.55l.34-.69.34.69a1,1,0,0,0,.75.55l.76.11Z"/>
        <path d="M19.83,15.23a1,1,0,0,0,1.05.08l2-1.06,2,1.06A1,1,0,0,0,26,15.23a1,1,0,0,0,.4-1L26,12l1.62-1.58a1,1,0,0,0,.26-1A1,1,0,0,0,27,8.73l-2.24-.32-1-2a1,1,0,0,0-1.79,0l-1,2-2.25.32a1,1,0,0,0-.8.68,1,1,0,0,0,.25,1L19.81,12l-.38,2.23A1,1,0,0,0,19.83,15.23Zm2-4.92a1,1,0,0,0,.75-.55l.34-.69.34.69a1,1,0,0,0,.75.55l.76.11-.55.53a1,1,0,0,0-.29.89l.13.76-.68-.36a.93.93,0,0,0-.46-.12,1,1,0,0,0-.47.12l-.68.36.13-.76a1,1,0,0,0-.29-.89L21,10.42Z"/>
        <path d="M39.84,9.41A1,1,0,0,0,39,8.73l-2.24-.32-1-2a1,1,0,0,0-1.79,0l-1,2-2.25.32a1,1,0,0,0-.8.68,1,1,0,0,0,.25,1L31.81,12l-.38,2.23a1,1,0,0,0,.4,1,1,1,0,0,0,1.05.08l2-1.06,2,1.06A1,1,0,0,0,38,15.23a1,1,0,0,0,.4-1L38,12l1.62-1.58A1,1,0,0,0,39.84,9.41ZM36.19,11a1,1,0,0,0-.29.89l.13.76-.68-.36a.93.93,0,0,0-.46-.12,1,1,0,0,0-.47.12l-.68.36.13-.76a1,1,0,0,0-.29-.89L33,10.42l.76-.11a1,1,0,0,0,.75-.55l.34-.69.34.69a1,1,0,0,0,.75.55l.76.11Z"/>
        <path d="M7,20h.68l9.75,6.82A1,1,0,0,0,18,27a1,1,0,0,0,.46-.11A1,1,0,0,0,19,26V19a1,1,0,0,0-2,0v5.08l-8.43-5.9A.94.94,0,0,0,8,18H7a3,3,0,0,1-3-3V7A3,3,0,0,1,7,4H40a3,3,0,0,1,3,3v8a3,3,0,0,1-3,3H22a1,1,0,0,0,0,2H40a5,5,0,0,0,5-5V7a5,5,0,0,0-5-5H7A5,5,0,0,0,2,7v8A5,5,0,0,0,7,20Z"/>
        <path d="M24,37a1,1,0,0,0,0-2H12a1,1,0,0,0,0,2Z"/>
    </symbol>
    <symbol xmlns="http://www.w3.org/2000/svg" id="icon9" viewBox="0 0 512 512">
        <path d="M472.436,108.218H334.161l-10.542-47.44c-3.232-14.546-15.897-24.705-30.797-24.705h-73.644c-14.9,0-27.565,10.159-30.797,24.705l-10.542,47.44H39.564C17.749,108.218,0,125.966,0,147.781v112.226c0,17.08,6.017,32.775,16.032,45.098v139.273c0,17.396,14.152,31.549,31.548,31.549h416.839c17.396,0,31.548-14.152,31.548-31.549V305.104C505.983,292.782,512,277.086,512,260.008V147.781C512,125.966,494.251,108.218,472.436,108.218z M391.759,284.571V123.218h17.064v161.354L391.759,284.571L391.759,284.571z M424.855,340.169c0,0.285-0.231,0.517-0.516,0.517h-48.097c-0.285,0-0.516-0.231-0.516-0.517v-40.08c0-0.285,0.231-0.517,0.516-0.517h16.548v16.549c0,4.143,3.358,7.5,7.5,7.5c4.142,0,7.5-3.357,7.5-7.5v-16.549h16.548c0.285,0,0.516,0.231,0.516,0.517v40.08H424.855z M203.023,64.031c1.696-7.63,8.339-12.959,16.155-12.959h73.644c7.816,0,14.459,5.329,16.155,12.959l9.819,44.187H193.204L203.023,64.031z M135.241,123.218h241.518v161.354h-0.516c-8.556,0-15.516,6.961-15.516,15.517v16.548H151.274v-16.548c0-8.556-6.96-15.517-15.516-15.517h-0.517V123.218z M111.709,323.62c4.142,0,7.5-3.357,7.5-7.5v-16.549h16.549c0.285,0,0.516,0.231,0.516,0.517v40.08c0,0.285-0.231,0.517-0.516,0.517H87.661c-0.285,0-0.516-0.231-0.516-0.517v-40.08c0-0.285,0.231-0.517,0.516-0.517h16.548v16.549C104.209,320.263,107.567,323.62,111.709,323.62z M103.178,123.218h17.064v161.354h-17.064V123.218z M15,260.008V147.781c0-13.545,11.02-24.564,24.564-24.564h48.613v161.354h-0.516c-8.556,0-15.516,6.961-15.516,15.517v16.548h-0.516C40.404,316.636,15,291.232,15,260.008z M120.241,460.927h-17.064V380.25c0-4.143-3.358-7.5-7.5-7.5c-4.142,0-7.5,3.357-7.5,7.5v80.678H47.581c-9.125,0-16.549-7.424-16.549-16.549V318.977c11.548,7.975,25.532,12.66,40.597,12.66h0.516v8.532c0,8.556,6.96,15.517,15.516,15.517h32.58V460.927z M408.822,460.927h-17.064V380.25c0-4.143-3.358-7.5-7.5-7.5c-4.142,0-7.5,3.357-7.5,7.5v80.678H135.241V355.685h0.517c8.556,0,15.516-6.961,15.516-15.517v-8.532h209.452v8.532c0,8.556,6.96,15.517,15.516,15.517h32.58V460.927z M480.968,444.378c0,9.125-7.424,16.549-16.549,16.549h-40.597V355.685h0.517c8.556,0,15.516-6.961,15.516-15.517v-8.532h0.516c15.064,0,29.049-4.685,40.597-12.66V444.378z M440.371,316.636h-0.516v-16.548c0-8.556-6.96-15.517-15.516-15.517h-0.516V123.218h48.612c13.545,0,24.564,11.02,24.564,24.564v112.226H497C497,291.234,471.596,316.636,440.371,316.636z"/>
    <path d="M288.065,252.506h-8.017c-4.142,0-7.5,3.357-7.5,7.5s3.358,7.5,7.5,7.5h8.017c0.285,0,0.516,0.231,0.516,0.517v16.032c0,0.284-0.231,0.516-0.516,0.516h-64.129c-0.285,0-0.516-0.231-0.516-0.516v-16.032c0-0.285,0.231-0.517,0.516-0.517h24.051c4.142,0,7.5-3.357,7.5-7.5s-3.358-7.5-7.5-7.5h-24.051c-8.556,0-15.516,6.961-15.516,15.517v16.032c-0.001,8.556,6.96,15.516,15.516,15.516h64.129c8.556,0,15.516-6.96,15.516-15.516v-16.032C303.581,259.467,296.621,252.506,288.065,252.506z"/>
    </symbol>
    <symbol xmlns="http://www.w3.org/2000/svg" id="icon10" viewBox="0 0 488.005 488.005">
        <path d="M446.058,87.765c0.648,0.16,1.296,0.24,1.944,0.24c2.096,0,4.136-0.832,5.656-2.344l32-32c2.04-2.04,2.824-5.016,2.056-7.792c-0.768-2.784-2.976-4.928-5.768-5.624l-27.344-6.832l-6.84-27.344c-0.696-2.8-2.848-5-5.624-5.776c-2.808-0.776-5.76,0.016-7.792,2.056l-32,32c-1.992,1.984-2.784,4.864-2.104,7.592l6.904,27.608l-3.304,3.304C360.914,32.677,303.298,8.005,240.002,8.005c-132.336,0-240,107.664-240,240s107.664,240,240,240s240-107.664,240-240c0-63.296-24.672-120.912-64.856-163.832l3.312-3.312L446.058,87.765z M464.002,248.005c0,123.512-100.488,224-224,224s-224-100.488-224-224s100.488-224,224-224c58.888,0,112.504,22.872,152.528,60.16l-11.312,11.312c-37.12-34.392-86.744-55.472-141.216-55.472c-114.688,0-208,93.304-208,208s93.312,208,208,208s208-93.304,208-208c0-54.472-21.08-104.096-55.472-141.216l11.312-11.312C441.13,135.501,464.002,189.117,464.002,248.005z M245.658,253.661l15.936-15.936c1.504,3.128,2.408,6.584,2.408,10.28c0,13.232-10.768,24-24,24s-24-10.768-24-24s10.768-24,24-24c3.696,0,7.152,0.904,10.28,2.408l-15.936,15.936L245.658,253.661z M262.026,214.669c-6.328-4.192-13.888-6.664-22.024-6.664c-22.056,0-40,17.944-40,40c0,22.056,17.944,40,40,40c22.056,0,40-17.944,40-40c0-8.136-2.472-15.696-6.664-22.024l39.904-39.904c14.168,16.736,22.76,38.336,22.76,61.928c0,52.936-43.064,96-96,96c-52.936,0-96-43.064-96-96c0-52.936,43.064-96,96-96c23.592,0,45.192,8.592,61.928,22.76L262.026,214.669z M313.234,163.461c-19.656-17.056-45.224-27.456-73.232-27.456c-61.76,0-112,50.24-112,112s50.24,112,112,112s112-50.24,112-112c0-28.008-10.4-53.576-27.456-73.232l11.304-11.304c19.944,22.568,32.152,52.12,32.152,84.536c0,70.576-57.424,128-128,128s-128-57.424-128-128s57.424-128,128-128c32.416,0,61.968,12.208,84.544,32.144L313.234,163.461z M240.002,104.005c-79.4,0-144,64.6-144,144s64.6,144,144,144s144-64.6,144-144c0-36.824-14.016-70.36-36.84-95.848l34.056-34.056c31.504,34.208,50.784,79.84,50.784,129.904c0,105.864-86.136,192-192,192s-192-86.136-192-192s86.136-192,192-192c50.064,0,95.696,19.28,129.912,50.776l-34.064,34.064C310.362,118.021,276.826,104.005,240.002,104.005z M435.666,23.653l4.576,18.288c0.72,2.864,2.96,5.112,5.824,5.824l18.296,4.576l-18.808,18.808l-22.952-5.736l-5.736-22.952L435.666,23.653z"/>
        <rect x="64.002" y="240.005" width="16" height="16"/>
        <rect x="400.002" y="240.005" width="16" height="16"/>
        <rect x="232.002" y="72.005" width="16" height="16"/>
        <rect x="232.002" y="408.005" width="16" height="16"/>
    </symbol>
    <symbol xmlns="http://www.w3.org/2000/svg" id="icon11" viewBox="0 0 496 496">
        <path d="m216 120c-52.9375 0-96 43.0625-96 96s43.0625 96 96 96 96-43.0625 96-96-43.0625-96-96-96zm0 16c43.464844 0 78.863281 34.855469 79.902344 78.070312l-50.09375 22.546876c-4.609375-12.023438-16.183594-20.617188-29.808594-20.617188-13.558594 0-25.105469 8.511719-29.761719 20.449219l-50.078125-23.570313c1.65625-42.65625 36.785156-76.878906 79.839844-76.878906zm16 112c0 8.824219-7.175781 16-16 16s-16-7.175781-16-16 7.175781-16 16-16 16 7.175781 16 16zm-16 48c-38.910156 0-71.390625-27.945312-78.511719-64.808594l47.046875 22.144532c2.5625 15.105468 15.648438 26.664062 31.464844 26.664062 15.792969 0 28.855469-11.519531 31.457031-26.585938l46.863281-21.085937c-7.566406 36.304687-39.808593 63.671875-78.320312 63.671875zm0 0"/>
        <path d="m357.65625 290.34375c-3.128906-3.128906-8.183594-3.128906-11.3125 0l-10.34375 10.34375-13.617188-13.617188c13.632813-20.351562 21.617188-44.789062 21.617188-71.070312 0-1.992188-.207031-3.929688-.296875-5.894531l53.703125-24.167969c5.257812 3.78125 11.640625 6.0625 18.59375 6.0625 17.648438 0 32-14.351562 32-32 0-11.113281-5.703125-20.902344-14.328125-26.640625l27.847656-69.605469c.832031.0625 1.632813.246094 2.480469.246094 17.648438 0 32-14.351562 32-32s-14.351562-32-32-32-32 14.351562-32 32c0 11.113281 5.703125 20.902344 14.328125 26.640625l-27.847656 69.605469c-.832031-.0625-1.632813-.246094-2.480469-.246094-5.710938 0-11 1.625-15.648438 4.257812l-45.152343-51.609374c2.984375-4.863282 4.800781-10.527344 4.800781-16.648438 0-17.648438-14.351562-32-32-32-11.609375 0-21.695312 6.28125-27.3125 15.550781l-124.777344-14.679687c.011719-.296875.089844-.574219.089844-.871094 0-17.648438-14.351562-32-32-32s-32 14.351562-32 32c0 8.121094 3.136719 15.457031 8.136719 21.105469l-72.984375 94.878906c-2.25-1.214844-4.625-2.191406-7.152344-2.847656v-82.273438c13.761719-3.574219 24-15.992187 24-30.863281 0-17.648438-14.351562-32-32-32s-32 14.351562-32 32c0 14.871094 10.238281 27.289062 24 30.863281v82.273438c-13.761719 3.574219-24 15.992187-24 30.863281 0 17.648438 14.351562 32 32 32 10.976562 0 20.671875-5.558594 26.441406-14.007812l29.964844 14.097656c-.167969 2.628906-.40625 5.238281-.40625 7.910156 0 70.574219 57.425781 128 128 128 26.28125 0 50.71875-7.984375 71.070312-21.617188l13.617188 13.617188-10.34375 10.34375c-1.503906 1.496094-2.34375 3.527344-2.34375 5.65625s.839844 4.160156 2.34375 5.65625l124.398438 124.398438c8.992187 8.992187 20.945312 13.945312 33.65625 13.945312 26.25 0 47.601562-21.351562 47.601562-47.601562 0-12.710938-4.953125-24.664063-13.945312-33.65625zm106.34375-274.34375c8.824219 0 16 7.175781 16 16s-7.175781 16-16 16-16-7.175781-16-16 7.175781-16 16-16zm-19.3125 384-44.6875 44.6875-68.6875-68.6875 44.6875-44.6875zm-12.6875-240c0 8.824219-7.175781 16-16 16s-16-7.175781-16-16 7.175781-16 16-16 16 7.175781 16 16zm-104-112c8.824219 0 16 7.175781 16 16s-7.175781 16-16 16-16-7.175781-16-16 7.175781-16 16-16zm-184-32c8.824219 0 16 7.175781 16 16s-7.175781 16-16 16-16-7.175781-16-16 7.175781-16 16-16zm-128 16c0-8.824219 7.175781-16 16-16s16 7.175781 16 16-7.175781 16-16 16-16-7.175781-16-16zm16 160c-8.824219 0-16-7.175781-16-16s7.175781-16 16-16 16 7.175781 16 16-7.175781 16-16 16zm31.71875-13.214844c.082031-.929687.28125-1.832031.28125-2.785156 0-6.304688-1.894531-12.152344-5.054688-17.113281l74.480469-96.824219c3.328125 1.175781 6.847657 1.9375 10.574219 1.9375 11.609375 0 21.695312-6.28125 27.3125-15.550781l124.785156 14.679687c-.019531.296875-.097656.574219-.097656.871094 0 17.648438 14.351562 32 32 32 5.710938 0 11-1.625 15.648438-4.257812l45.160156 51.609374c-2.992188 4.863282-4.808594 10.527344-4.808594 16.648438 0 4.6875 1.070312 9.113281 2.886719 13.128906l-45.015625 20.253906c-10.71875-59.816406-63.023438-105.382812-125.871094-105.382812-62.144531 0-114.039062 44.535156-125.566406 103.359375zm40.28125 37.214844c0-61.761719 50.238281-112 112-112s112 50.238281 112 112-50.238281 112-112 112-112-50.238281-112-112zm195.824219 96.511719c4.519531-3.925781 8.761719-8.167969 12.6875-12.6875l12.175781 12.175781-12.6875 12.6875zm17.832031 29.144531 34.34375-34.34375 12.6875 12.6875-44.6875 44.6875-12.6875-12.6875zm130.742188 138.34375c-8.4375 0-16.375-3.289062-22.335938-9.257812l-14.75-14.742188 44.6875-44.6875 14.742188 14.742188c5.96875 5.96875 9.257812 13.90625 9.257812 22.34375 0 17.425781-14.175781 31.601562-31.601562 31.601562zm0 0"/>
        <path d="m440 440h16v16h-16zm0 0"/>
    </symbol>
    <symbol xmlns="http://www.w3.org/2000/svg" id="facebook" viewBox="0 0 193.971 193.971">
        <path d="M187.773,25.738C180.016,0.164,156.417,4.05,134.423,4.136c-30.364,0.118-72.729-10.415-99.84,7.654C15.972,24.194,8.613,51.167,4.235,71.591c-5.661,26.405-5.991,54.968,1.113,81.099c4.849,17.838,20.944,41.25,41.429,37.568c13.169,2.614,26.393,2.883,39.954,2.205c17.205-0.857,37.38-1.175,53.688-6.918c0.476-0.168,0.872-0.47,1.226-0.817c4.985-0.648,9.978-1.423,14.987-2.462c24.165-5.01,28.784-27.913,31.646-49.123C193.107,97.335,198.439,60.887,187.773,25.738z M19.76,57.255c-0.07,0.365-0.072,0.732-0.03,1.094c-0.566,2.887-1.129,5.774-1.622,8.662c-0.085,0.177-0.192,0.325-0.249,0.538c-1.452,5.482-2.758,10.975-3.959,16.476c-0.036,0.027-0.077,0.048-0.112,0.076c1.136-7.404,2.49-14.011,3.791-19.161c0.654-2.587,1.432-5.362,2.305-8.196C19.849,56.92,19.793,57.078,19.76,57.255z M39.851,154.568c-0.404-0.771-0.785-1.556-1.214-2.308c0.717,0.265,1.413,0.56,2.097,0.879c1.517,1.88,2.964,3.812,4.356,5.785C43.244,157.58,41.51,156.114,39.851,154.568z M62.407,39.02c-0.262-0.759-0.514-1.521-0.751-2.288c1.627-0.659,3.25-1.327,4.879-1.98C65.23,36.222,63.862,37.651,62.407,39.02z M67.601,54.588c1.712-2.022,3.317-4.099,4.84-6.227c0.398-0.287,0.805-0.564,1.195-0.861c-1.526,2.293-2.955,4.663-4.346,7.062C68.727,54.57,68.164,54.582,67.601,54.588z M86.524,118.673c0.099-2.451,0.26-4.89,0.244-7.365c-0.006-0.848-0.3-1.467-0.714-1.932c0.691-0.029,1.402-0.017,2.078-0.076C87.4,112.395,86.91,115.527,86.524,118.673z M136.953,97.347c-3.949,0.181-4.693,4.772-2.338,6.755c-2.354,7.444-2.055,15.348-2.424,23.36c-0.567,12.349-0.238,24.707,0.449,37.043c-11.861,0.906-23.769,2.078-35.68,3.299c0.833-6.195-0.582-13.76-0.684-19.056c-0.237-12.319-0.821-24.978,1.026-37.202c0.251-1.662-0.018-3.211-1.049-4.387c2.788-2.021,2.407-6.13-1.18-7.549c-6.269-2.478-14.891-1.585-22.236-1.229c-1.459-7.229-1.418-15.354,0.112-22.544c5.315-0.307,10.627-0.773,15.931-1.171c2.923-0.219,4.073-2.723,3.541-4.819c0.094-0.166,0.213-0.322,0.281-0.498c1.735-4.509,1.975-9.196,3.369-13.827c2.524-8.388,9.678-15.302,16.427-20.41c12.78-9.676,29.104-12.688,44.617-10.157c0.68,7.384,1.821,14.688,2.782,22.029c-1.943-0.136-3.918-0.06-5.67-0.028c-5.775,0.107-11.504,1.062-17.274,1.251c-2.64,0.087-4.951,2.166-4.907,4.907c0.066,4.184,1.062,8.453,1.535,12.651l0.001,0.002c-1.701,2.5-0.614,6.735,3.371,6.86c4.534,0.142,9.063,0.242,13.599,0.114c2.334-0.066,5.254-0.128,7.977-0.607c-0.809,3.792-0.746,7.902-0.889,11.715c-0.154,4.119-0.152,8.317,0.027,12.502c-1.637,0.084-3.275,0.201-4.898,0.275C147.497,96.867,142.225,97.107,136.953,97.347z M158.438,113.46c-0.158-1.563-0.24-3.109-0.431-4.682c-0.149-1.245-0.993-2.232-2.026-2.796c0.832,0.054,1.664,0.116,2.496,0.144c0.047,0.375,0.071,0.756,0.121,1.129c0.121,0.89,0.598,1.555,1.244,2.008C159.357,110.662,158.875,112.062,158.438,113.46z M175.889,136.058c-1.201,8.873-3.205,15.681-6.301,20.924c2.311-7.234,4.466-14.477,6.417-21.746C175.967,135.505,175.924,135.786,175.889,136.058z"/>
    </symbol>
    <symbol xmlns="http://www.w3.org/2000/svg" id="youtube" viewBox="0 0 188.576 188.576">
        <path d="M92.79,54.405c-0.389-2.117-3.927-2.147-4.29,0c-0.567,3.353-0.904,6.728-0.702,10.129c0.16,2.708-0.265,7.874,3.703,7.874C97.747,72.408,93.397,57.707,92.79,54.405z"/>
        <path d="M69.401,95.228c-2.856-0.242-5.752-0.438-8.617-0.499c-2.532-0.054-5.727-0.117-7.707,1.715c-0.925,0.856-0.892,2.452,0,3.313c0.204,0.255,0.39,0.523,0.557,0.805c0.378,0.596,1.318,0.413,1.531-0.125c1.271,0.076,2.567,0.047,3.856,0.076c-0.28,10.761-1.887,22.281,0.988,32.772c0.39,1.423,2.45,1.401,2.851,0c2.905-10.153,2.88-21.441,2.758-31.987c1.27,0.165,2.54,0.282,3.783,0.216C73.486,101.297,73.412,95.567,69.401,95.228z"/>
        <path d="M90,121.268c0.008-1.604,0.499-14.922-0.98-14.405c0.439-0.154,0.552-0.741,0.13-0.997c-3.383-2.051-4.128,7.923-4.26,9.126c-0.381,3.471-0.462,6.984-0.515,10.479c-1.393,0.533-3.574,2.773-4.126,1.869c-1.364-2.237-1.167-5.734-1.184-8.236c-0.02-3.011,0.361-6.069,0.196-9.071c-0.101-1.845-0.524-3.763-1.894-3.815c-5.145-0.202-4.062,15.133-3.724,18.061c0.362,3.131,1.168,6.979,4.234,8.576c1.905,0.992,4.507,0.542,6.546-0.693c0.187,0.793,0.525,1.515,1.163,2.054c0.955,0.805,2.08,0.802,3.035,0C91.325,131.942,89.985,124.373,90,121.268z"/>
        <path d="M105.722,104.4c-0.505-0.944-1.942-1.379-2.851-0.747c-1.329,0.924-2.5,1.813-3.584,2.87c-0.296-3.649-0.725-7.284-1.169-10.808c-0.206-1.643-2.348-1.643-2.555,0c-1.154,9.176-1.221,18.425-1.896,27.637c-0.196,2.681-1.471,9.383,2.56,10.162c0.83,0.16,1.818,0.058,2.41-0.637c0.087-0.103,0.153-0.197,0.227-0.295c1.787,1.236,4.376,1.507,6.667,1.162c1.192-0.179,1.979-1.521,1.997-2.624C107.69,122.174,110.169,112.715,105.722,104.4z M102.413,108.323c1.192,6.632,0.185,13.127-0.204,19.806c-0.992-0.469-1.96-1.204-3.068-1.488c0.002-0.133-0.004-0.267,0-0.4c0.066-2.369,0.275-4.735,0.413-7.101c0.177-3.054,0.133-6.179-0.039-9.315C100.462,109.267,101.429,108.772,102.413,108.323z"/>
        <path d="M129.18,126.078c-0.463-1.32-2.101-2.293-3.415-1.39c-1.811,1.244-1.895,3.333-3.234,4.874c-0.154-0.146-0.312-0.325-0.476-0.559c-1.692-2.416-2.546-6.008-2.312-9.045c0.214,0.019,0.433,0.038,0.642,0.056c0.571,0.048,1.694-0.124,2.202,0.103c0.87,0.39,1.624,0.562,2.58,0.544c1.368-0.026,2.232-0.866,2.717-2.067c1.688-4.187,2.295-11.112-3.178-12.772c-6.189-1.878-9.372,6.909-10.231,11.271c-1.067,5.408,0.22,11.898,3.846,16.148c1.598,1.873,4.343,2.695,6.577,1.492C127.463,133.353,130.178,128.924,129.18,126.078z M123.116,111.457c0.006-0.005,0.028-0.013,0.053-0.021c0.033,0.04,0.058,0.056,0.062,0.034c0.085,0.241,0.152,0.487,0.208,0.735c0.2,0.891-0.067,2.157-0.437,3.333c-0.552,0.215-1.102,0.451-1.724,0.621c-0.277,0.076-0.552,0.119-0.827,0.169c0.35-1.195,0.802-2.359,1.43-3.434C122.217,112.325,122.621,111.892,123.116,111.457z"/>
        <path d="M181.717,86.051c-5.662-49.773-46.404-91.224-98.301-85.526C60.317,3.06,37.946,14.073,23.985,32.994C9.608,52.48,4.698,76.744,6.543,100.596c2.014,26.032,12.219,51.375,33.082,67.821c8.776,6.919,19.265,11.617,29.792,15.196c5.41,1.839,11.961,3.602,17.99,3.132c15.15,5.613,34.387-2.861,48.062-9.487c11.236-5.445,21.338-13.644,28.947-23.536C179.204,134.496,184.43,109.901,181.717,86.051z M136.441,78.923c0.113-0.68,0.216-1.362,0.327-2.042c0.256,1.076,0.547,2.146,0.875,3.21c-0.535-0.029-1.073-0.046-1.611-0.064C136.223,79.714,136.37,79.353,136.441,78.923z M121.4,63.771c-0.139,3.607-1.562,12.032,0.526,16.246c-0.203-0.002-0.418,0.002-0.619-0.002c-1.008-0.016-2.016-0.009-3.023-0.013c-0.183-0.66-0.377-1.32-0.419-1.991c-0.157-2.526-3.113-3.181-4.537-1.229c-1.28,1.755-3.013,3.34-4.849,2.226c-0.764-3.198-1.541-6.387-2.331-9.577c-0.101-0.403-0.331-0.712-0.607-0.971c1.236-4.121,1.545-8.792,0.599-12.986c1.307-1.097,1.128-2.837,0.839-4.45c-0.134-0.744-0.314-1.479-0.462-2.22c-0.026-0.129-0.042-0.259-0.061-0.388c1.758-0.019,3.517-0.038,5.274-0.055c0.086,5.972,0.499,11.976,0.676,17.942c0.084,2.853,3.909,3.236,4.822,0.653c1.965-5.562,0.482-12.692,0.2-18.655c0.08-0.001,0.159-0.002,0.239-0.003c1.396-0.017,2.942,0.079,4.516,0.119C120.565,52.704,121.54,60.121,121.4,63.771z M80.832,58.48c1.812-3.252,3.371-6.646,4.81-10.098c4.607,0.058,9.333,0.532,12.769,3.938c4.469,4.429,2.289,14.069-0.262,18.807c-2.286,4.246-7.752,7.032-12.525,6.25c-2.139-0.35-3.403-1.364-4.101-3.393c-0.025-0.072-0.049-0.156-0.075-0.244c-0.001-1.799-0.003-3.599-0.004-5.398C81.443,65.08,82.021,61.525,80.832,58.48z M75.062,66.708l-0.002,2.604c-0.033,3.486,0.003,6.976-0.007,10.469c-0.002,0.575,0.13,1.061,0.343,1.476c-2.598,0.186-5.194,0.372-7.787,0.503c-0.437,0.022-0.877,0.022-1.316,0.031c0.187-4.275-0.031-8.399-0.641-12.479c0.162-3.294,0.296-6.589,0.29-9.889c0.008-0.903-0.352-1.559-0.878-1.998c-0.008-0.094,0.005-0.185-0.018-0.28c-1.137-4.538-3.936-9.257-6.319-13.25c-1.201-2.013-2.338-4.059-3.381-6.158c2.729,0.159,6.593,0.887,10.715,1.527c0.167,1.24,0.259,2.49,0.423,3.73c0.29,2.192,0.712,4.476,0.729,6.692c0.015,2.095,3.057,3.097,4.078,1.105c1.726-3.371,3.283-6.882,4.417-10.508c1.3,0.034,2.55-0.002,3.734-0.117c-0.352,1.361,0.035,2.848,1.233,3.626c-1.546,4.109-2.973,8.263-4.242,12.455c-0.421,0.263-0.747,0.721-0.817,1.406c-0.043,0.424-0.055,0.849-0.092,1.273C74.722,61.388,75.063,64.016,75.062,66.708z M51.418,75.753c-0.005-0.117-0.003-0.23-0.019-0.351c0.005-0.012,0.011-0.022,0.015-0.034c0.366-0.891,0.137-1.858-0.389-2.653c-0.037-0.268-0.076-0.536-0.113-0.804c0.497,1.217,1.022,2.426,1.576,3.627C52.144,75.553,51.787,75.618,51.418,75.753z M70.83,39.915c-0.171,0.579-0.36,1.152-0.549,1.725c-0.095-0.538-0.208-1.174-0.355-1.83C70.228,39.847,70.528,39.88,70.83,39.915z M123.904,13.856c-3.225-1.572-6.457-2.942-9.693-4.107c3.703,1.017,7.341,2.267,10.855,3.819C124.645,13.58,124.264,13.697,123.904,13.856z M69.992,176.573c-0.695-0.237-1.39-0.475-2.081-0.729c0.057-0.058,0.116-0.111,0.169-0.172c0.769,0.21,1.538,0.405,2.307,0.585C70.246,176.353,70.116,176.459,69.992,176.573z M142.751,136.62c-7.457,8.461-20.155,7.451-30.377,7.734c-11.785,0.326-23.59-0.079-35.365-0.548c-13.94-0.557-39.548,2.271-42.007-16.564c-1.07-8.2,0.88-18.204,4.316-25.706c3.221-7.032,9.106-9.461,15.265-12.621c2.034,0.202,4.036,0.192,5.504,0.222c8.091,0.166,16.194-0.615,24.263-1.085c9.605-0.559,19.257-0.721,28.876-0.77c5.646-0.029,11.291,0.085,16.934,0.274c0.371,0.752,1.038,1.397,2.054,1.758C151.515,96.153,155.948,121.647,142.751,136.62z M148.428,30.839c0.116-0.235,0.208-0.481,0.271-0.737c0.785,0.808,1.539,1.644,2.29,2.484C150.145,31.988,149.288,31.409,148.428,30.839z M171.654,71.398c-0.35-0.767-0.722-1.525-1.112-2.274c0.134-0.206,0.25-0.423,0.338-0.657c0.321,1.027,0.636,2.055,0.926,3.089C171.756,71.501,171.704,71.45,171.654,71.398z"/>
    </symbol>
    <symbol xmlns="http://www.w3.org/2000/svg" id="instagram" viewBox="0 0 184.591 184.591">
    <path d="M105.809,84.807c-2.568-5.338-10.827-11.555-16.133-7.163c-7.664,0.037-12.159,8.901-11.73,16.308c0.66,11.389,13.132,15.92,22.775,11.982C109.383,102.396,109.295,92.046,105.809,84.807z M94.088,103.401c1.231-0.185,2.461-0.551,3.652-1.098c0.134,0.112,0.276,0.206,0.419,0.304C96.851,103.111,95.472,103.369,94.088,103.401z"/>
    <path d="M130.943,60.559c0.061-1.873-0.047-3.75-0.177-5.508c-0.083-1.125-0.876-2.062-2.064-2.065c-2.293-0.007-9.679-0.901-12.199,1.216c-0.704-0.773-2.216-0.5-2.305,0.85c-0.349,5.266-0.586,10.528-0.624,15.806c-0.006,0.825,0.596,1.715,1.436,1.887c1.065,0.217,2.173,0.388,3.285,0.478c0.075,0.124,0.166,0.241,0.278,0.346c2.582,2.454,7.653,0.581,10.665,0.112c0.657-0.103,1.256-0.791,1.407-1.409C131.574,68.513,131.79,64.361,130.943,60.559z"/>
    <path d="M133.404,88.419c-0.141-1.166-1.04-1.816-1.968-1.945c1.185-1.242,0.094-3.87-2.029-3.365c-2.976,0.707-6.025,0.721-9.024,0.126c-1.104-0.219-1.882,0.501-2.098,1.337c-0.364,0.441-0.545,1.04-0.356,1.763c4.757,18.198-4.975,32.997-24.219,33.354c-18.07,0.336-29.635-13.456-25.96-30.999c0.128-0.61,0.05-1.425-0.488-1.846c0,0-0.069-0.064-0.157-0.144c0.384-0.669,0.409-1.548-0.254-2.286c-0.06-0.066-0.131-0.116-0.196-0.175c0.14-0.331,0.249-0.685,0.286-1.088c0.073-0.793-0.72-1.462-1.461-1.461c-0.789,0.001-1.434,0.238-2.067,0.545c-0.174-0.074-0.359-0.135-0.568-0.162c-3.916-0.511-7.515,0.616-11.415,0.91c-1.041,0.078-1.931,0.816-1.925,1.925c0.036,5.854,0.062,11.708,0.112,17.562c-0.01,0.386,0.106,0.686,0.266,0.943c0.174,8.391,2.717,17.209,6.218,22.756c7.268,11.516,24.553,10.595,36.452,11.268c10.166,0.574,31.934,3.346,38.096-7.559C136.915,118.791,134.852,100.521,133.404,88.419z M122.223,121.203c-0.031-0.029-0.059-0.066-0.093-0.095c0.534-1.935,0.994-3.882,1.366-5.853c0.099-0.262,0.2-0.524,0.302-0.786c-0.044,0.358-0.099,0.713-0.148,1.069C123.149,117.42,122.673,119.309,122.223,121.203z M118.201,132.467c0.941-0.49,1.842-1.088,2.684-1.819l0.262,0.087c0.211,0.07,0.408,0.094,0.601,0.096c0.126,0.178,0.286,0.328,0.465,0.455c-1.307,0.674-2.75,1.189-4.287,1.576C118.036,132.74,118.132,132.615,118.201,132.467z M64.089,87.682c-0.279,0.985-0.495,1.955-0.678,2.915c-0.059-0.621-0.133-1.243-0.225-1.866c0.369-0.42,0.538-1.013,0.455-1.562c0.205,0.053,0.408,0.113,0.598,0.193C64.187,87.466,64.123,87.561,64.089,87.682z M92.755,133.336c1.378-0.09,2.758-0.176,4.137-0.276c0.002,0.153,0.009,0.3,0.038,0.452c-0.843-0.049-1.65-0.09-2.405-0.119C93.952,133.369,93.355,133.353,92.755,133.336z"/>
    <path d="M157.638,29.478c-9.937-12.504-23.426-22.083-38.707-26.773C103.265-2.104,85.358,0.113,69.884,4.57c-30.78,8.868-54.362,33.409-62.647,64.184C4.101,80.4,3.469,91.993,4.959,103.217c0,0.046-0.018,0.082-0.015,0.131c0.208,2.506,0.667,4.871,1.283,7.15c3.116,14.228,9.681,27.725,19.104,39.785c16.278,20.834,44.301,38.432,71.439,32.057c-0.016,1.328,1.031,2.666,2.65,2.129c32.426-10.743,62.269-29.264,75.294-62.242C187.152,90.747,178.171,55.313,157.638,29.478z M8.635,101.764c-0.276-2.367-0.449-4.74-0.508-7.114c0.033,0.237,0.068,0.474,0.104,0.711c0.135,2.218,0.372,4.411,0.655,6.587C8.805,101.883,8.717,101.826,8.635,101.764z M17.849,90.641c-0.101,0.355-0.204,0.708-0.309,1.061c-0.029-0.696-0.06-1.392-0.066-2.09c0.132-0.461,0.261-0.922,0.39-1.384C17.849,89.032,17.841,89.836,17.849,90.641z M89.09,168.435c-1.34-0.267-2.68-0.532-4.02-0.793c1.349,0.116,2.697,0.263,4.046,0.397C89.089,168.172,89.092,168.304,89.09,168.435z M142.321,157.342c0.76-0.303,1.516-0.631,2.266-0.982c-0.623,0.504-1.235,1.021-1.871,1.512C142.612,157.676,142.476,157.498,142.321,157.342z M96.473,34.292c0.786,0.034,1.568,0.087,2.35,0.147c-0.002,0.006-0.005,0.011-0.007,0.016c-1.716,0.085-3.429,0.206-5.137,0.372C94.612,34.658,95.542,34.475,96.473,34.292z M29.943,132.147c-0.399-1.356-0.793-2.715-1.203-4.067c0.684,1.614,1.403,3.215,2.142,4.808C30.573,132.64,30.257,132.394,29.943,132.147z M34.212,52.188c-0.3,0.216-0.609,0.42-0.917,0.626c-0.13-0.103-0.262-0.202-0.414-0.271c0.69-0.62,1.357-1.259,2.028-1.897C34.661,51.15,34.433,51.667,34.212,52.188z M38.295,119.533c0.015-0.686,0.016-1.371,0.034-2.058c0.057,0.099,0.098,0.204,0.156,0.301c0.026,0.043,0.06,0.065,0.09,0.101c0.164,1.129,0.37,2.248,0.608,3.357C38.883,120.67,38.592,120.1,38.295,119.533z M49.163,133.438c-9.105-9.495-7.438-26.287-6.677-38.243c0.765-12.004,2.674-24.494,0.779-36.49c0.219-0.587,0.504-1.117,0.779-1.656c1.356-1.535,2.618-3.139,3.744-4.836c8.225-7.244,23.53-7.485,33.31-7.814c13.935-0.468,28.896-1.83,42.606,1.001c16.634,3.435,19.778,18.415,19.587,33.359c-0.197,15.465,0.556,31.64-3.674,46.654c-5.394,19.139-25.542,18.547-42.091,18.321c-8.651-0.118-17.292-0.829-25.898-1.668C63.225,141.248,55.23,139.767,49.163,133.438z M74.998,177.992c3.753,0.534,7.518,0.984,11.293,1.379C82.457,179.242,78.685,178.781,74.998,177.992z"/>
    </symbol>
</svg>